<?xml version="1.0" standalone="no"?>
<!DOCTYPE svg PUBLIC "-//W3C//DTD SVG 20010904//EN"
 "http://www.w3.org/TR/2001/REC-SVG-20010904/DTD/svg10.dtd">
<svg version="1.0" xmlns="http://www.w3.org/2000/svg"
 width="3000.000000pt" height="3000.000000pt" viewBox="0 0 3000.000000 3000.000000"
 preserveAspectRatio="xMidYMid meet">

<g transform="translate(0.000000,3000.000000) scale(0.100000,-0.100000)"
fill="#000000" stroke="none">
<path d="M7515 10270 c-165 -16 -278 -46 -407 -111 -182 -91 -303 -230 -364
-416 -26 -79 -29 -102 -29 -218 0 -106 4 -143 22 -200 28 -87 67 -155 129
-224 134 -149 298 -223 759 -341 305 -78 422 -127 494 -205 47 -51 65 -109 58
-186 -12 -139 -110 -231 -295 -281 -104 -27 -349 -30 -470 -5 -184 37 -362
118 -472 213 -71 62 -111 70 -154 32 -29 -28 -136 -236 -136 -267 0 -33 91
-123 184 -183 213 -137 502 -213 806 -212 358 2 611 91 791 280 111 117 168
256 176 429 9 199 -41 345 -162 468 -143 147 -283 208 -775 336 -340 88 -438
135 -502 238 -18 30 -22 51 -22 117 0 97 22 150 87 213 83 82 196 120 377 130
232 12 448 -42 645 -161 72 -43 95 -45 135 -8 33 30 120 227 120 271 0 40 -24
66 -98 110 -127 76 -286 133 -459 165 -103 19 -319 27 -438 16z"/>
<path d="M17893 10270 c-264 -28 -504 -140 -674 -317 -247 -255 -362 -615
-346 -1078 15 -423 128 -731 347 -945 144 -141 328 -225 555 -255 146 -19 192
-19 322 1 217 32 376 108 514 244 162 161 233 334 232 570 0 318 -159 576
-436 710 -321 154 -766 123 -1025 -72 -55 -42 -82 -56 -82 -45 0 33 35 231 50
287 69 246 247 424 485 486 54 14 107 19 230 18 183 0 259 -15 365 -70 76 -40
118 -43 148 -11 31 33 132 242 132 273 0 65 -166 149 -372 188 -97 19 -338 27
-445 16z m196 -1382 c138 -33 261 -129 301 -235 29 -73 38 -213 20 -281 -37
-133 -127 -230 -263 -281 -120 -44 -317 -45 -447 -1 -78 26 -184 95 -223 145
-131 167 -108 396 56 545 63 58 175 105 292 124 44 7 212 -3 264 -16z"/>
<path d="M19845 10270 c-286 -27 -534 -139 -709 -319 -55 -58 -66 -75 -66
-103 0 -43 4 -48 119 -148 139 -121 150 -122 247 -30 99 95 196 146 344 181
74 18 319 18 390 0 173 -43 266 -142 277 -297 11 -141 -32 -266 -136 -396 -31
-40 -203 -217 -382 -393 -178 -176 -429 -423 -556 -550 l-233 -230 0 -118 c0
-113 1 -118 28 -147 l27 -31 875 0 875 0 28 31 c27 30 27 32 27 166 l0 136
-34 34 -34 34 -547 0 c-301 -1 -549 1 -551 3 -2 2 182 190 410 418 363 363
421 426 478 514 120 186 161 316 161 515 1 209 -56 360 -182 486 -114 116
-248 187 -419 224 -103 22 -311 32 -437 20z"/>
<path d="M22375 10270 c-346 -35 -627 -199 -807 -470 -155 -234 -219 -484
-218 -857 0 -375 65 -632 215 -858 129 -193 313 -325 532 -381 272 -69 531
-51 753 53 302 141 470 405 470 738 -1 360 -224 652 -580 759 -308 92 -671 38
-898 -134 -29 -22 -55 -40 -57 -40 -16 0 7 172 40 294 19 70 74 183 122 248
52 72 129 135 218 178 127 63 186 75 370 74 182 0 256 -14 368 -70 76 -38 112
-42 144 -16 31 25 133 235 133 275 0 101 -275 200 -585 211 -77 2 -176 1 -220
-4z m185 -1382 c235 -55 366 -245 330 -477 -14 -87 -51 -161 -110 -219 -97
-96 -202 -133 -375 -134 -247 -1 -419 88 -501 259 -35 72 -36 77 -32 171 2 79
8 107 30 154 63 135 202 230 377 258 65 10 215 4 281 -12z"/>
<path d="M9034 10250 c-12 -5 -29 -19 -38 -32 -14 -20 -16 -139 -16 -1249 0
-1192 1 -1227 19 -1250 18 -23 26 -24 177 -29 158 -5 201 1 220 32 5 7 11 249
14 538 l5 525 650 0 650 0 5 -522 5 -523 26 -25 c25 -26 28 -26 170 -26 79 0
152 0 162 0 10 1 29 12 42 26 l25 24 0 1230 0 1230 -24 28 c-24 28 -24 28
-171 31 -157 4 -196 -4 -218 -42 -9 -15 -13 -156 -17 -521 l-5 -500 -650 0
-650 0 -5 507 -5 507 -23 23 c-21 22 -31 23 -175 25 -83 1 -162 -2 -173 -7z"/>
<path d="M11804 10250 c-12 -5 -29 -19 -38 -32 -14 -20 -16 -139 -16 -1251 l0
-1228 26 -24 c15 -14 34 -25 43 -25 9 0 405 0 881 0 l865 0 28 30 c27 30 27
32 27 166 l0 136 -34 34 -34 34 -678 0 c-372 0 -679 1 -681 3 -2 3 -4 159 -4
348 l0 344 583 5 c435 4 588 8 604 17 33 19 44 65 44 185 0 120 -12 165 -51
186 -18 9 -160 13 -602 15 l-578 2 0 322 c0 178 2 327 6 333 4 7 229 10 661
10 l656 0 29 29 29 29 0 137 0 137 -34 34 -34 34 -838 -1 c-462 0 -849 -4
-860 -9z"/>
<path d="M14084 10251 c-12 -5 -29 -20 -38 -33 -14 -20 -16 -139 -16 -1251 l0
-1228 26 -24 c15 -14 39 -25 53 -25 638 -4 1166 2 1250 15 306 46 575 182 772
393 156 167 257 365 305 602 25 121 29 345 10 478 -60 409 -301 744 -664 926
-95 48 -157 72 -247 96 -191 51 -204 52 -835 56 -346 2 -604 0 -616 -5z m1156
-406 c347 -46 602 -227 720 -510 42 -103 60 -187 67 -321 14 -269 -74 -503
-255 -676 -126 -120 -263 -189 -451 -228 -89 -18 -137 -20 -480 -20 l-381 0 0
878 c0 483 3 882 7 885 13 14 664 7 773 -8z"/>
<path d="M7762 6558 c-17 -17 -17 -869 0 -886 17 -17 73 -15 87 2 9 11 12 100
10 333 -1 177 2 318 7 318 8 0 87 -130 251 -415 68 -118 81 -132 111 -128 24
3 91 108 284 451 33 59 64 107 69 107 5 0 10 -152 11 -337 l3 -338 24 -3 c12
-2 34 -1 47 2 l24 6 -2 448 -3 447 -36 3 c-29 2 -41 -2 -55 -21 -11 -13 -95
-158 -189 -321 -93 -163 -175 -295 -182 -294 -7 2 -94 142 -193 313 -100 170
-186 313 -193 317 -18 12 -62 9 -75 -4z"/>
<path d="M9837 6564 c-11 -11 -8 -565 3 -625 21 -111 83 -197 176 -244 56 -29
65 -30 184 -30 105 1 132 4 171 22 91 42 153 117 184 221 12 41 15 107 13 354
l-3 303 -45 0 -45 0 -6 -305 c-6 -312 -9 -340 -50 -406 -74 -121 -309 -136
-411 -28 -60 64 -63 80 -68 424 l-5 315 -45 3 c-25 2 -49 0 -53 -4z"/>
<path d="M11827 6553 c-62 -21 -134 -85 -158 -141 -37 -87 -16 -187 53 -248
42 -37 109 -64 256 -104 128 -34 156 -47 192 -85 32 -34 35 -107 5 -147 -37
-51 -98 -73 -205 -73 -107 0 -178 19 -248 66 -24 16 -47 29 -52 29 -6 0 -17
-16 -25 -36 -18 -43 -12 -53 49 -89 86 -50 132 -60 276 -59 146 0 168 5 246
62 54 40 84 102 84 175 0 30 -5 68 -11 84 -13 35 -64 90 -102 110 -32 16 -158
58 -209 68 -95 20 -167 53 -198 92 -18 23 -21 37 -18 81 8 90 64 131 193 140
86 5 162 -11 237 -49 l37 -19 16 29 c23 45 19 59 -22 80 -104 52 -292 68 -396
34z"/>
<path d="M13372 6558 c-17 -17 -17 -869 0 -886 14 -14 84 -16 93 -2 8 13 8
877 0 890 -9 14 -79 12 -93 -2z"/>
<path d="M14858 6551 c-83 -27 -138 -62 -200 -130 -156 -168 -155 -442 3 -616
98 -107 216 -151 384 -143 84 4 111 10 165 35 70 32 130 77 130 97 0 16 -42
56 -59 56 -7 0 -27 -11 -44 -24 -50 -37 -87 -53 -155 -66 -160 -32 -332 54
-401 200 -23 48 -26 68 -26 155 0 87 3 107 26 156 36 75 96 134 177 172 58 27
78 31 152 32 96 0 162 -19 222 -66 47 -37 59 -36 88 3 l23 32 -39 34 c-42 36
-95 63 -159 81 -63 17 -221 13 -287 -8z"/>
<path d="M17765 6558 c-3 -7 -4 -211 -3 -453 l3 -440 42 -3 c33 -2 44 1 52 17
7 12 10 89 10 203 l-2 183 259 5 c142 3 265 3 272 1 9 -2 12 -51 12 -201 0
-171 2 -199 16 -204 25 -10 72 -7 79 5 11 17 8 880 -3 891 -5 5 -27 8 -48 6
l-39 -3 -5 -195 -5 -195 -270 0 -270 0 2 179 c1 101 -3 188 -8 198 -11 21 -87
26 -94 6z"/>
<path d="M19662 6558 c-15 -15 -17 -496 -3 -595 19 -126 87 -223 191 -272 50
-24 66 -26 180 -26 117 0 128 2 177 28 106 55 164 142 183 272 5 39 10 185 10
326 0 286 1 283 -67 277 l-38 -3 -5 -310 c-4 -200 -10 -323 -18 -346 -40 -119
-183 -183 -325 -146 -78 21 -124 58 -156 126 -26 56 -26 57 -31 366 l-5 310
-40 3 c-23 2 -46 -3 -53 -10z"/>
<path d="M21545 6558 c-3 -7 -4 -211 -3 -453 l3 -440 185 -3 c342 -5 457 20
525 116 28 41 30 50 30 132 0 82 -2 91 -30 130 -16 24 -48 52 -70 64 -22 11
-42 22 -44 23 -2 2 12 19 32 38 55 53 71 90 71 166 0 57 -4 74 -30 115 -36 58
-107 99 -199 114 -92 15 -464 13 -470 -2z m507 -105 c62 -28 83 -62 83 -135 0
-51 -3 -60 -33 -91 -49 -50 -91 -58 -287 -55 l-170 3 -3 139 c-2 99 1 142 10
153 10 13 40 15 183 11 146 -3 177 -7 217 -25z m47 -406 c56 -28 82 -63 88
-118 9 -88 -49 -149 -160 -168 -88 -15 -359 -15 -375 1 -19 19 -17 294 2 305
8 4 101 7 208 5 176 -3 197 -5 237 -25z"/>
</g>
</svg>
